<svg id="visual" viewBox="0 0 900 600" width="900" height="600" xmlns="http://www.w3.org/2000/svg" xmlns:xlink="http://www.w3.org/1999/xlink" version="1.1"><rect x="0" y="0" width="900" height="600" fill="#001220"></rect><path d="M0 356L21.5 360.8C43 365.7 86 375.3 128.8 377.2C171.7 379 214.3 373 257.2 379.5C300 386 343 405 385.8 412C428.7 419 471.3 414 514.2 404.8C557 395.7 600 382.3 642.8 378.5C685.7 374.7 728.3 380.3 771.2 380.7C814 381 857 376 878.5 373.5L900 371L900 601L878.5 601C857 601 814 601 771.2 601C728.3 601 685.7 601 642.8 601C600 601 557 601 514.2 601C471.3 601 428.7 601 385.8 601C343 601 300 601 257.2 601C214.3 601 171.7 601 128.8 601C86 601 43 601 21.5 601L0 601Z" fill="#fa7268"></path><path d="M0 460L21.5 460.2C43 460.3 86 460.7 128.8 459.5C171.7 458.3 214.3 455.7 257.2 448.2C300 440.7 343 428.3 385.8 427.3C428.7 426.3 471.3 436.7 514.2 436.8C557 437 600 427 642.8 424.7C685.7 422.3 728.3 427.7 771.2 428.8C814 430 857 427 878.5 425.5L900 424L900 601L878.5 601C857 601 814 601 771.2 601C728.3 601 685.7 601 642.8 601C600 601 557 601 514.2 601C471.3 601 428.7 601 385.8 601C343 601 300 601 257.2 601C214.3 601 171.7 601 128.8 601C86 601 43 601 21.5 601L0 601Z" fill="#ef5f67"></path><path d="M0 451L21.5 451.5C43 452 86 453 128.8 453.7C171.7 454.3 214.3 454.7 257.2 453.5C300 452.3 343 449.7 385.8 449C428.7 448.3 471.3 449.7 514.2 457.3C557 465 600 479 642.8 485.3C685.7 491.7 728.3 490.3 771.2 489.2C814 488 857 487 878.5 486.5L900 486L900 601L878.5 601C857 601 814 601 771.2 601C728.3 601 685.7 601 642.8 601C600 601 557 601 514.2 601C471.3 601 428.7 601 385.8 601C343 601 300 601 257.2 601C214.3 601 171.7 601 128.8 601C86 601 43 601 21.5 601L0 601Z" fill="#e34c67"></path><path d="M0 519L21.5 519.7C43 520.3 86 521.7 128.8 522C171.7 522.3 214.3 521.7 257.2 523.3C300 525 343 529 385.8 524C428.7 519 471.3 505 514.2 505.5C557 506 600 521 642.8 522.8C685.7 524.7 728.3 513.3 771.2 506.5C814 499.7 857 497.3 878.5 496.2L900 495L900 601L878.5 601C857 601 814 601 771.2 601C728.3 601 685.7 601 642.8 601C600 601 557 601 514.2 601C471.3 601 428.7 601 385.8 601C343 601 300 601 257.2 601C214.3 601 171.7 601 128.8 601C86 601 43 601 21.5 601L0 601Z" fill="#d53867"></path><path d="M0 574L21.5 570C43 566 86 558 128.8 555.3C171.7 552.7 214.3 555.3 257.2 554.8C300 554.3 343 550.7 385.8 545.3C428.7 540 471.3 533 514.2 536.5C557 540 600 554 642.8 556.5C685.7 559 728.3 550 771.2 544.7C814 539.3 857 537.7 878.5 536.8L900 536L900 601L878.5 601C857 601 814 601 771.2 601C728.3 601 685.7 601 642.8 601C600 601 557 601 514.2 601C471.3 601 428.7 601 385.8 601C343 601 300 601 257.2 601C214.3 601 171.7 601 128.8 601C86 601 43 601 21.5 601L0 601Z" fill="#c62368"></path></svg>